<?xml version="1.0" encoding="utf-8"?>
<!-- Generator: Adobe Illustrator 21.0.2, SVG Export Plug-In . SVG Version: 6.00 Build 0)  -->
<svg version="1.1" id="Layer_1" xmlns="http://www.w3.org/2000/svg" xmlns:xlink="http://www.w3.org/1999/xlink" x="0px" y="0px"
	 viewBox="0 0 1561.8 233.6" style="enable-background:new 0 0 1561.8 233.6;" xml:space="preserve">
<g>
	<path d="M1262.6,0c0.6,8.8,3.9,12.1,12.6,12.2c3.9,0,7.9,0.3,11.8-0.1c8.6-0.8,13.8,7.2,13.8,13.6c0,9.4,0.9,18.9-2.1,28
		c-0.5,1.6,0.1,2.6,1.7,3.1c2.1,0.7,2.4-1,3.1-2.2c6.2-11,9.8-22.9,12.7-35c0.9-3.6,2.9-5.5,6.1-6.6c10.5-3.7,21.2-2.7,31.9-1.8
		c8.9,0.7,17,3.8,24.3,8.7c12.7,8.4,19.2,20.8,22.9,35.1c4.8,18.6,4.5,37.6,3.9,56.5c-0.4,11.5-1.6,23-2.4,34.5
		c-0.7,10.3-2.1,20.5-3.2,30.8c-0.2,2.2-1.2,3.3-3.7,3.3c-28.9-0.1-57.8,0-86.8,0c-2.3,0-2.8-0.7-2.5-3.2c1.4-9.9,2.5-19.9,3.8-29.9
		c0.6-4.6,1.2-9.3,1.6-14c0.3-2.9,2.4-2.5,4.2-2.5c15.1,0,30.3-0.3,45.4,0.1c9,0.2,11.6-2.5,12.6-12.3c1.3-12.6-0.3-25.1-5.7-36.6
		c-5.8-12.3-14.9-20.6-29.1-22.7c-9.1-1.4-17.6-0.7-24.9,4.8c-6.7,5.1-11.2,12.2-14.7,19.9c-6.8,15.2-9.6,31.4-11.5,47.8
		c-1.3,10.8-2.3,21.6-3.1,32.4c-0.1,1.7-0.7,2.6-2.2,3.5c-9.3,5.2-18.6,10.6-27.9,15.9c-2.3,1.3-4.7,0.7-7.1,0.7
		c-1.1,0-1.3-0.4-1.3-1.8c1.4-23.1,3-46.3,9.3-68.7c3.2-11.6,6.7-23.2,12.4-33.9c1.1-2,2.1-4.1,2.7-6.3c1.8-6.5-3-12.5-9.9-12.5
		c-2.3,0-4.6,0.2-6.9-0.1c-10.1-1.4-12.5-7.5-12.8-14.8c-0.6-13.4,0.3-26.9,2.1-40.2c0.3-1.9,0.1-3.8,0.1-5.7
		C1250.2,0,1256.4,0,1262.6,0z"/>
	<path d="M388.5,0c0,9.1,3.1,12.1,12.1,12.2c34.3,0,68.7,0.1,103-0.1c10.6-0.1,15.1,4.9,15.4,15.2c0.3,8.9,0.1,17.8,0.1,26.8
		c0,1.2-0.1,2.3-1,3.4c-5,6-5.9,13.5-6.2,20.8c-0.4,12.4-0.6,24.9,0,37.3c0.6,11.3,2.1,22.6,4.3,33.8c0.7,3.7,1.4,7.4,1.9,11
		c0.2,1.4,0,2.6-1.4,3.5c-10.5,6.2-20.8,12.7-31.4,18.7c-4.9,2.8-7.4,0.8-7.7-4.8c-0.8-14-0.9-28-1.8-41.9c-0.8-12-0.9-24-0.4-36
		c0.4-11.3,3.7-22.1,8.9-32.3c2.6-5.1,1.5-6.8-4.3-6.8c-19.1,0-38.1,0.3-57.2-0.1c-6.7-0.1-11.6,5.6-11.6,11.3
		c-0.2,17.2-0.6,34.3,0.1,51.5c0.5,12,2.5,23.9,3.8,35.9c0.4,3.7,0.1,6.5-4.2,8.3c-9.7,4.3-19.1,9.3-28.6,14c-0.8,0.4-1.6,1-2.5,1.3
		c-5,1.6-6.9,0.2-6.9-5c0-25.7,0-51.4,0-77c0-12.3,3.6-23.5,10.2-33.8c2.9-4.6,2.6-5.4-2.8-6.5c-9.6-1.9-13-6-13-16.1
		c0-14.9,1-29.8,2.4-44.7C376.1,0,382.3,0,388.5,0z"/>
	<path d="M750.1,0c0.2,8.2,3.4,12.2,12.8,12.2c28.5,0,57,0,85.5,0c9,0,13.6,4.6,13.6,13.7c0,8.9-0.1,17.8,0,26.7
		c0,2.2-0.5,4.1-2.4,5.2c-3.8,2.3-5,5.9-5.9,10c-1.2,5.2-1.6,10.3-1.5,15.6c0.1,17.2,0,34.3,0,51.5c0,16.4,1.6,32.7,3,49
		c0.8,8.8,2,17.6,2.7,26.4c0.2,2.3-0.6,3.6-2.5,4.8c-10,6.1-20,12.4-29.9,18.6c-2.7,0-5.4,0-8.1,0c0-43.2-0.1-86.4,0-129.6
		c0-13,2.4-25.5,9.4-36.8c2.5-4.1,1-6.3-4-6.3c-25.8,0-51.6,0-77.4,0c-4.7,0-9.2-0.6-12.7-4.6c-2.7-3.1-3.8-6.7-3.6-10.3
		c0.7-13.5,0.1-27.1,2.2-40.6c0.3-1.7,0.1-3.5,0.1-5.3C737.7,0,743.9,0,750.1,0z"/>
	<path d="M552.3,0c0,9.1,3.1,12.1,12.1,12.2c33,0,65.9,0,98.9,0c9.9,0,13.5,5.3,13.8,13.1c0.4,9,0,18.1,0.1,27.2
		c0,2.2-1.1,3.6-2.1,5.1c-4.1,6-5.9,12.6-6,19.7c-0.2,12-0.3,24.1,0,36.1c0.2,8.4,1.9,16.7,3.4,25c1.4,7.3,2.9,14.7,4.5,22
		c0.3,1.6-0.2,2.4-1.6,3.2c-10.4,6.3-20.8,12.7-31.2,19c-2.5,1.5-5.2,0.7-7.9,0.6c-1.3,0-1.2-1.2-1.3-2.1
		c-0.5-5.9-1.2-11.7-1.6-17.6c-1.4-23.3-1-46.7-0.7-70c0.1-9.4,4.1-17.9,9-25.9c1.2-2,3.6-4.2,0.3-6.5c-0.6-0.4-1-0.7-1.8-0.6
		c-31.4,1.2-62.9,0.3-94.4,0.5c-9.3,0.1-14.5-5.5-14.6-14.9c-0.2-13.6,1-27.1,1.7-40.7c0.1-1.7,0.5-3.4,0.8-5.1
		C539.9,0,546.1,0,552.3,0z"/>
	<path d="M1561.8,163c-8.7,4.2-16.4,10-24.8,14.6c-4.6,2.5-8.5,6.8-14.6,5.7c-2-0.3-2.6-0.9-2.8-2.9c-2.9-28.6-2.5-57.3-2.3-86
		c0.1-8.5,3.3-16.1,7.2-23.5c1.1-2,2.2-4,3.2-6c1-2.2-0.6-4.9-2.9-4.5c-5.1,0.9-10.2,0.4-15.3,0.4c-25,0.1-50,0-74.9,0.1
		c-3.1,0-6.2-0.3-9.2-0.9c-4.9-1-9.3-6.4-9.4-12.1c-0.2-14.8,0.4-29.5,2.3-44.2c0.2-1.2,0.1-2.4,0.1-3.6c6.2,0,12.4,0,18.7,0
		c0,8.2,2.1,10.9,9.2,12.1c1.3,0.2,2.7,0.1,4,0.1c32.8,0,65.6,0,98.3,0c3.7,0,7,0.9,9.6,3.4c1.6,1.5,2.5,3.7,3.7,5.6
		c0,11.4,0,22.7,0,34.1c-0.4,0.3-1,0.6-1.3,1c-4.6,6.4-6.7,13.7-6.8,21.4c-0.3,21.3-0.9,42.7,4.1,63.7c1.2,5.1,0.8,10.7,4,15.3
		C1561.8,158.7,1561.8,160.9,1561.8,163z"/>
	<path d="M104.7,0c0.2,3,0.6,5.9,2.4,8.4c2.6,3.7,6.6,3.7,10.5,3.7c28.5,0.1,57,0.1,85.5,0c10.9-0.1,13.9,5.3,14.3,13.9
		c0.4,9.8,0.1,19.7,0.1,29.6c0,2.5-0.8,3.7-3.5,3.7c-2.9,0-5.9,0.4-8.8,0.8c-3.5,0.6-4.7,3.7-5.3,6.4c-0.6,2.8-1.2,5.7-1.1,8.8
		c0.2,8.8,0.3,17.6,0,26.3c-0.5,20.2,2.3,40.1,6.7,59.8c0.4,1.9,0.5,2.9-1.3,3.9c-10.4,5.5-20.8,11.1-31.2,16.7
		c-1.2,0.6-2.3,1.2-3.8,1.3c-6,0.5-6,0.4-6.1-5.6c-0.8-27.1-0.9-54.2-0.7-81.3c0.1-10.6,2.5-20.7,8.9-29.5c0.8-1.1,2.5-2,1.5-4.1
		c-1.1-2.3-3-1.9-4.8-1.9c-22.8,0-45.7,0.1-68.5-0.1c-9-0.1-12.3-3.1-14.8-9.8c-1.6-4.2-1.3-8.8-0.7-13.2c0.4-3,0.7-5.9,0.6-8.8
		C83.8,19.3,86,9.7,86,0C92.2,0,98.5,0,104.7,0z"/>
	<path d="M1116.7,0c-0.6,9,3.6,12.2,12.4,12.2c28.9,0,57.8,0,86.8,0c7.9,0,12.6,4.6,12.7,12.4c0.1,10.3-0.1,20.5,0.1,30.8
		c0.1,3.1-1,4-3.9,3.9c-2.9-0.1-6,0-8.8,0.9c-4,1.3-4.7,5.4-5.1,8.9c-1.8,15-1.4,30.2-0.7,45.3c0.7,15.6,2.7,31.2,6.8,46.4
		c0.6,2.1,0.3,3.5-1.8,4.6c-10.7,5.8-21.4,11.7-32.1,17.5c-1.8,1-4,0.5-6,0.3c-3.1-0.2-1.7-2.9-1.9-4.4c-1.8-11.3-0.1-22.6-0.8-33.9
		c-0.9-14-0.9-28-0.7-42.1c0.2-10.9,0.8-21.7,6.5-31.5c1-1.7,2.1-3.4,3.2-5.1c0.8-1.1,1.5-2.1,0.8-3.7c-0.8-1.8-2.3-1.6-3.8-1.6
		c-12.2,0-24.3,0-36.5,0c-10.8,0-21.6,0-32.4,0c-9.8,0.1-16-5.4-15.9-15.8c0.2-13.6,1.1-27.1,1.8-40.7c0.1-1.5,0.5-2.9,0.8-4.3
		C1104.2,0,1110.4,0,1116.7,0z"/>
	<path d="M977.2,0c0.2,8.8,3.5,12.1,12.2,12.2c21.6,0,43.2,0.2,64.8,0c15.1-0.2,26.7,11,27.6,27c1.6,27.2,0.3,54.5,0.7,81.7
		c0.2,14.1,1.3,28.1,3.1,42.1c0.2,1.4-0.1,2.5-1.5,3.4c-9.1,5.9-18.1,11.9-27.2,17.8c-2.7,1.7-8.7-1.4-8.3-4.5
		c0.9-7,0.1-14,1.2-20.9c0.2-1.5,0.3-2.9,0.3-4.4c0-20.7,0.2-41.3-0.1-62c-0.1-6.2-0.4-12.5-2.2-18.7c-2.3-7.7-8.3-12.8-16.3-12.8
		c-19.9,0-39.7,0.1-59.6,0c-5.5,0-10.7-1.1-13.8-6.5c-1.5-2.6-2-5.5-2.1-8.5c-0.3-14,0.5-27.9,2.4-41.8c0.2-1.3,0-2.7,0.1-4
		C964.8,0,971,0,977.2,0z"/>
	<path d="M249.8,0c1.1,8.8,2.2,12.1,14.2,12.1c21.2,0.1,42.4,0.3,63.6-0.1c11.3-0.2,25,8.9,26.9,23.9c0.6,4.8,0.7,9.6,0.7,14.5
		c0,22.2-0.1,44.3,0,66.5c0.1,14.8,1.2,29.5,3.2,44.1c0.4,2.7-0.2,4.7-2.9,6.4c-8.6,5.2-17,10.6-25.3,16.3c-3.2,2.2-4.9-0.5-7.2-1.3
		c-2.5-0.8-1.8-3-1.7-4.8c0.4-5.3,1.4-10.6,1.4-16c0.2-24.6,0.2-49.2,0-73.8c-0.1-7-0.7-14.2-4.9-20.4c-3-4.5-7.2-6.7-12.5-6.7
		c-19.9,0-39.7-0.1-59.6,0c-12.4,0.1-16.8-6.2-17-17c-0.2-12.5,0.9-24.9,2.3-37.3c0.3-2.1,0.1-4.3,0.1-6.5C237.4,0,243.6,0,249.8,0z
		"/>
	<path d="M19.5,0c1.1,8.8,2.2,11.9,14.2,12.1c6.5,0.1,13,0,19.5,0c10.2,0,17,6.3,18.3,16.5c1.6,12.4,1.2,24.8,0.5,37.2
		c-0.9,16.3-6.3,31.2-19.2,42.4c-4.3,3.7-8.7,7.2-13.4,10.2c-1.6,1-2.7,1.1-4-0.6c-3.5-4.4-7.3-8.6-11-12.8c-1.8-2.1-1-3.2,1.2-4.6
		c5.5-3.3,11.1-6.6,14.8-12.1c4.2-6.3,4-13.1,0.5-19.5c-3.1-5.8-8.5-8.3-15.1-8c-1.9,0.1-3.8-0.1-5.7,0c-8,0.6-15.2-0.6-19.9-8.1
		c0-13.5,0-27,0-40.5C1.9,8.3,0.4,4.1,0.9,0C7.1,0,13.3,0,19.5,0z"/>
	<path d="M893.7,0c-0.6,9.1,3.7,12,12,12.1c7,0.1,14-0.1,21.1,0c11.8,0.1,18.2,7.3,18.7,18.2c0.6,12.7,0.9,25.4,0,38.1
		c-1.3,17.6-8.5,32.5-23,43.3c-2.9,2.1-5.8,4.3-8.8,6.4c-2,1.4-3.7,1.1-5.2-0.8c-3.6-4.5-7.2-9-11-13.3c-1.4-1.6-0.6-2,0.8-2.9
		c4.7-3,9.5-6,13.5-10.1c5.5-5.6,7-12.9,4.1-19.9c-2.7-6.6-8.7-10.2-16.7-10.3c-5.1-0.1-10.2,0.7-15.3-0.7
		c-6.7-1.8-10.1-5.7-10.4-12.5c-0.6-13.4,0.8-26.7,0.9-40c0-2.5,0.8-5,0.7-7.6C881.2,0,887.5,0,893.7,0z"/>
	<path d="M0.9,0c-0.5,4,1,8.2-0.8,12.2c0-3.6,0-7.3,0-10.9C0.1,0.8-0.4-0.2,0.9,0z"/>
	<path d="M533.6,153.3c0-8.2-0.4-16.5,0.1-24.7c0.6-10.3,1-20.6,4.6-30.4c1-2.9,2.5-4.2,5.5-5c7.7-2.1,15.4-4.7,22.9-7.3
		c2.6-0.9,3.9-0.5,5.7,1.8c3.4,4.4,4.2,8.3,2,13.8c-3.6,9.1-2.3,18.9-1.6,28.4c0.8,11,2.4,22,5.2,32.8c0.4,1.6-0.6,2.4-1.9,3.1
		c-11,5.6-22,11.2-33,16.9c-2.6,1.3-5.3,0.8-7.9,0.6c-2.3-0.1-1.5-2.2-1.6-3.5C533.6,170.9,533.6,162.1,533.6,153.3z"/>
	<path d="M779.3,115.2c-5.3,0.6-11.7-3.6-12-11.3c-0.3-6.5,5.8-12.3,12.3-12.2c6.3,0.2,11.2,5.5,11.2,12.3
		C790.6,110.7,786,115.2,779.3,115.2z"/>
	<path d="M778.9,146.8c-6,1.2-11.5-5-11.6-11.2c-0.1-6,5.1-12.2,11.7-11.6c7.2,0.6,11.7,4.5,11.6,11.5
		C790.7,142.6,786.3,146.8,778.9,146.8z"/>
	<path d="M1418.3,154.8c0-6.2-0.2-12.4,0-18.6c0.6-12.8,0.3-25.7,4.7-38.1c0.9-2.4,2.1-3.8,4.5-4.5c8.2-2.5,16.3-5.1,24.5-7.8
		c2.1-0.7,3.5-0.6,4.7,1.5c0.9,1.6,2.3,2.9,3.3,4.5c0.9,1.5,1.7,3,0.8,4.9c-4.8,9.7-3.9,20.2-3.4,30.5c0.5,9.7,2,19.4,3.8,29
		c1.7,8.6,1.4,8.6-6.3,12.5c-8.7,4.4-17.5,8.9-26.1,13.5c-2.8,1.5-5.8,1.1-8.7,1.1c-2.3-0.1-1.8-2-1.8-3.3
		C1418.3,171.5,1418.3,163.1,1418.3,154.8z"/>
</g>
</svg>
